<svg width="184" height="48" viewBox="0 0 184 48" fill="none" xmlns="http://www.w3.org/2000/svg">
<path d="M38.0625 41.25C36.375 43.2708 33.9896 44.8438 30.9062 45.9688C27.8229 47.0729 24.4062 47.625 20.6562 47.625C16.7188 47.625 13.2604 46.7708 10.2812 45.0625C7.32292 43.3333 5.03125 40.8333 3.40625 37.5625C1.80208 34.2917 0.979167 30.4479 0.9375 26.0312V22.9375C0.9375 18.3958 1.69792 14.4688 3.21875 11.1562C4.76042 7.82292 6.96875 5.28125 9.84375 3.53125C12.7396 1.76042 16.125 0.875 20 0.875C25.3958 0.875 29.6146 2.16667 32.6562 4.75C35.6979 7.3125 37.5 11.0521 38.0625 15.9688H28.9375C28.5208 13.3646 27.5938 11.4583 26.1562 10.25C24.7396 9.04167 22.7812 8.4375 20.2812 8.4375C17.0938 8.4375 14.6667 9.63542 13 12.0312C11.3333 14.4271 10.4896 17.9896 10.4688 22.7188V25.625C10.4688 30.3958 11.375 34 13.1875 36.4375C15 38.875 17.6562 40.0938 21.1562 40.0938C24.6771 40.0938 27.1875 39.3438 28.6875 37.8438V30H20.1562V23.0938H38.0625V41.25ZM43.6875 29.7812C43.6875 26.4271 44.3333 23.4375 45.625 20.8125C46.9167 18.1875 48.7708 16.1562 51.1875 14.7188C53.625 13.2812 56.4479 12.5625 59.6562 12.5625C64.2188 12.5625 67.9375 13.9583 70.8125 16.75C73.7083 19.5417 75.3229 23.3333 75.6562 28.125L75.7188 30.4375C75.7188 35.625 74.2708 39.7917 71.375 42.9375C68.4792 46.0625 64.5938 47.625 59.7188 47.625C54.8438 47.625 50.9479 46.0625 48.0312 42.9375C45.1354 39.8125 43.6875 35.5625 43.6875 30.1875V29.7812ZM52.7188 30.4375C52.7188 33.6458 53.3229 36.1042 54.5312 37.8125C55.7396 39.5 57.4688 40.3438 59.7188 40.3438C61.9062 40.3438 63.6146 39.5104 64.8438 37.8438C66.0729 36.1562 66.6875 33.4688 66.6875 29.7812C66.6875 26.6354 66.0729 24.1979 64.8438 22.4688C63.6146 20.7396 61.8854 19.875 59.6562 19.875C57.4479 19.875 55.7396 20.7396 54.5312 22.4688C53.3229 24.1771 52.7188 26.8333 52.7188 30.4375ZM109.25 27.2812H91.25V39.4688H112.375V47H81.875V1.5H112.312V9.09375H91.25V19.9375H109.25V27.2812ZM136.875 47C136.458 46.1875 136.156 45.1771 135.969 43.9688C133.781 46.4062 130.938 47.625 127.438 47.625C124.125 47.625 121.375 46.6667 119.188 44.75C117.021 42.8333 115.938 40.4167 115.938 37.5C115.938 33.9167 117.26 31.1667 119.906 29.25C122.573 27.3333 126.417 26.3646 131.438 26.3438H135.594V24.4062C135.594 22.8438 135.188 21.5938 134.375 20.6562C133.583 19.7188 132.323 19.25 130.594 19.25C129.073 19.25 127.875 19.6146 127 20.3438C126.146 21.0729 125.719 22.0729 125.719 23.3438H116.688C116.688 21.3854 117.292 19.5729 118.5 17.9062C119.708 16.2396 121.417 14.9375 123.625 14C125.833 13.0417 128.312 12.5625 131.062 12.5625C135.229 12.5625 138.531 13.6146 140.969 15.7188C143.427 17.8021 144.656 20.7396 144.656 24.5312V39.1875C144.677 42.3958 145.125 44.8229 146 46.4688V47H136.875ZM129.406 40.7188C130.74 40.7188 131.969 40.4271 133.094 39.8438C134.219 39.2396 135.052 38.4375 135.594 37.4375V31.625H132.219C127.698 31.625 125.292 33.1875 125 36.3125L124.969 36.8438C124.969 37.9688 125.365 38.8958 126.156 39.625C126.948 40.3542 128.031 40.7188 129.406 40.7188ZM162.406 4.875V13.1875H168.188V19.8125H162.406V36.6875C162.406 37.9375 162.646 38.8333 163.125 39.375C163.604 39.9167 164.521 40.1875 165.875 40.1875C166.875 40.1875 167.76 40.1146 168.531 39.9688V46.8125C166.76 47.3542 164.938 47.625 163.062 47.625C156.729 47.625 153.5 44.4271 153.375 38.0312V19.8125H148.438V13.1875H153.375V4.875H162.406ZM173.688 42.5625C173.688 41.125 174.167 39.9583 175.125 39.0625C176.104 38.1667 177.323 37.7188 178.781 37.7188C180.26 37.7188 181.479 38.1667 182.438 39.0625C183.417 39.9583 183.906 41.125 183.906 42.5625C183.906 43.9792 183.427 45.1354 182.469 46.0312C181.51 46.9062 180.281 47.3438 178.781 47.3438C177.302 47.3438 176.083 46.9062 175.125 46.0312C174.167 45.1354 173.688 43.9792 173.688 42.5625Z" fill="#64002A"/>
</svg>
